<?xml version="1.0" encoding="UTF-8"?>
<svg xmlns="http://www.w3.org/2000/svg" xmlns:xlink="http://www.w3.org/1999/xlink" version="1.1" x="0px" y="0px" viewBox="0 0 406.97 95.65" style="enable-background:new 0 0 406.97 95.65;" xml:space="preserve">
<style type="text/css">
.st0{fill:#FFFFFF;}
.st1{fill:#414042;}
.st2{fill:#F26722;}
</style>
<g>
  <g>
    <g>
      <path class="st2" d="M38.7,71.91c-0.28,0-0.5-0.22-0.5-0.5l0.01-5.68l-0.19,0c-1.52,2.41-3.7,4.26-6.52,5.55 c-2.82,1.3-5.82,1.94-8.99,1.94c-3.55,0-6.72-0.71-9.51-2.11c-2.79-1.4-5.15-3.26-7.08-5.57c-1.93-2.32-3.4-5-4.41-8.04 C0.5,54.45,0,51.28,0,47.98c0-3.3,0.53-6.45,1.58-9.46c1.05-3.01,2.54-5.66,4.48-7.94c1.94-2.28,4.29-4.08,7.05-5.41 c2.76-1.33,5.85-1.99,9.28-1.98c3.49,0,6.43,0.67,8.84,2.01c2.41,1.33,4.28,2.8,5.61,4.38l0.19,0L37.07,0.5 c0-0.28,0.22-0.5,0.5-0.5l14.6,0.02c0.28,0,0.5,0.22,0.5,0.5l-0.1,70.91c0,0.28-0.22,0.5-0.5,0.5L38.7,71.91z M37.67,48.13 c0-1.52-0.27-3.01-0.8-4.47c-0.54-1.46-1.3-2.76-2.28-3.9c-0.98-1.14-2.17-2.06-3.56-2.76c-1.39-0.7-2.98-1.05-4.75-1.05 c-1.84,0-3.46,0.34-4.85,1.04c-1.4,0.7-2.57,1.6-3.52,2.7c-0.95,1.11-1.67,2.39-2.15,3.85c-0.48,1.46-0.72,2.95-0.72,4.47 c0,1.52,0.23,3.03,0.71,4.52c0.47,1.49,1.19,2.81,2.13,3.95c0.95,1.14,2.12,2.06,3.52,2.76c1.39,0.7,3.01,1.05,4.85,1.05 c1.77,0,3.36-0.34,4.76-1.04c1.39-0.7,2.58-1.61,3.57-2.75c0.98-1.14,1.75-2.44,2.29-3.9C37.39,51.14,37.66,49.65,37.67,48.13z"/>
      <path class="st2" d="M88.42,71.98c-0.28,0-0.5-0.22-0.5-0.5l0.01-6.06l-0.19,0c-0.57,1.08-1.32,2.09-2.24,3.04 c-0.92,0.95-2,1.77-3.24,2.47c-1.24,0.69-2.6,1.26-4.09,1.7c-1.49,0.44-3.06,0.66-4.71,0.66c-3.17,0-5.85-0.58-8.03-1.72 c-2.19-1.14-3.96-2.62-5.32-4.43c-1.36-1.81-2.34-3.87-2.94-6.19c-0.6-2.32-0.9-4.68-0.89-7.09l0.04-28.8c0-0.28,0.22-0.5,0.5-0.5 l14.7,0.02c0.28,0,0.5,0.22,0.5,0.5l-0.03,25.18c0,1.33,0.09,2.6,0.28,3.8c0.19,1.21,0.55,2.28,1.09,3.24 c0.54,0.95,1.25,1.7,2.14,2.24c0.89,0.54,2.06,0.81,3.52,0.81c2.73,0,4.81-1.01,6.23-3.03c1.43-2.03,2.15-4.4,2.15-7.13l0.03-25.09 c0-0.28,0.22-0.5,0.5-0.5l14.6,0.02c0.28,0,0.5,0.22,0.5,0.5l-0.06,46.37c0,0.28-0.22,0.5-0.5,0.5L88.42,71.98z"/>
      <path class="st2" d="M158.89,48.2c-0.01,3.87-0.71,7.37-2.11,10.51c-1.4,3.14-3.31,5.8-5.72,7.98 c-2.41,2.19-5.21,3.88-8.38,5.08c-3.17,1.2-6.57,1.8-10.18,1.79c-3.55,0-6.93-0.61-10.13-1.82c-3.2-1.21-5.99-2.91-8.36-5.1 c-2.38-2.19-4.26-4.86-5.65-8c-1.39-3.14-2.08-6.65-2.08-10.51c0.01-3.87,0.71-7.35,2.11-10.46c1.4-3.1,3.29-5.73,5.67-7.89 c2.38-2.15,5.17-3.8,8.38-4.93c3.2-1.14,6.58-1.7,10.13-1.7c3.61,0,7,0.58,10.17,1.73c3.17,1.15,5.96,2.8,8.36,4.96 c2.41,2.16,4.3,4.79,5.7,7.9C158.2,40.85,158.9,44.34,158.89,48.2z M143.86,48.18c0-1.52-0.25-3.01-0.76-4.47 c-0.51-1.46-1.23-2.74-2.18-3.86c-0.95-1.11-2.12-2.01-3.52-2.71c-1.39-0.7-3.01-1.05-4.85-1.05c-1.84,0-3.46,0.34-4.85,1.04 c-1.4,0.7-2.56,1.6-3.48,2.7c-0.92,1.11-1.62,2.39-2.1,3.85c-0.48,1.46-0.72,2.95-0.72,4.47c0,1.52,0.23,3.01,0.71,4.47 c0.47,1.46,1.18,2.78,2.13,3.95c0.95,1.18,2.12,2.11,3.52,2.81c1.39,0.7,3.01,1.05,4.85,1.05c1.84,0,3.46-0.34,4.85-1.04 c1.39-0.7,2.57-1.63,3.52-2.8c0.95-1.17,1.67-2.48,2.15-3.94C143.62,51.19,143.86,49.7,143.86,48.18z"/>
    </g>
  </g>
  <g>
    <path class="st1" d="M213.32,68.04c0,9.04-2.25,15.91-6.75,20.59c-4.5,4.68-11.34,7.03-20.53,7.03c-4.21,0-8.35-0.48-12.43-1.43 c-4.08-0.95-7.83-2.8-11.26-5.55l8.06-12.19c2.26,1.9,4.64,3.41,7.13,4.52c2.49,1.11,5.23,1.67,8.2,1.67 c4.47,0,7.75-1.1,9.85-3.29c2.1-2.2,3.16-5,3.16-8.4v-4.62h-0.19c-1.68,2.29-3.77,3.92-6.26,4.87c-2.49,0.95-4.84,1.43-7.04,1.43 c-3.49,0-6.67-0.6-9.51-1.82c-2.85-1.21-5.29-2.91-7.33-5.11c-2.04-2.19-3.61-4.8-4.71-7.81c-1.1-3.01-1.65-6.32-1.65-9.93 c0-3.15,0.5-6.22,1.5-9.24c1-3.01,2.43-5.67,4.27-7.96c1.84-2.29,4.09-4.14,6.75-5.55c2.65-1.41,5.66-2.11,9.03-2.11 c2.07,0,3.96,0.23,5.68,0.69c1.71,0.46,3.25,1.05,4.61,1.77c1.36,0.72,2.52,1.52,3.49,2.41s1.75,1.75,2.33,2.6h0.19V24.3h13.4 V68.04z M176.63,47.89c0,1.57,0.29,3.06,0.87,4.47c0.58,1.41,1.41,2.65,2.48,3.73c1.07,1.08,2.3,1.95,3.69,2.6 c1.39,0.66,2.93,0.98,4.61,0.98c1.62,0,3.14-0.33,4.56-0.98c1.42-0.65,2.67-1.52,3.74-2.6c1.07-1.08,1.89-2.33,2.48-3.73 c0.58-1.41,0.87-2.9,0.87-4.47c0-1.57-0.29-3.06-0.87-4.47c-0.58-1.41-1.41-2.65-2.48-3.73c-1.07-1.08-2.31-1.95-3.74-2.6 c-1.42-0.65-2.95-0.98-4.56-0.98c-1.68,0-3.22,0.33-4.61,0.98c-1.39,0.66-2.62,1.52-3.69,2.6c-1.07,1.08-1.89,2.33-2.48,3.73 C176.92,44.82,176.63,46.31,176.63,47.89z"/>
    <path class="st1" d="M217.21,24.3h14.56v7.67h0.19c1.55-2.95,3.4-5.16,5.53-6.63c2.13-1.47,4.82-2.21,8.06-2.21 c0.84,0,1.68,0.03,2.52,0.1c0.84,0.07,1.62,0.2,2.33,0.39v13.46c-1.04-0.33-2.06-0.57-3.06-0.74c-1-0.16-2.06-0.25-3.16-0.25 c-2.78,0-4.98,0.39-6.6,1.18c-1.62,0.79-2.86,1.88-3.74,3.29c-0.87,1.41-1.44,3.1-1.7,5.06c-0.26,1.97-0.39,4.13-0.39,6.49v19.95 h-14.56V24.3z"/>
    <path class="st1" d="M251.28,48.18c0-3.8,0.68-7.24,2.04-10.32c1.36-3.08,3.22-5.72,5.58-7.91c2.36-2.19,5.14-3.88,8.35-5.06 c3.2-1.18,6.62-1.77,10.24-1.77c3.62,0,7.04,0.59,10.24,1.77c3.2,1.18,5.99,2.87,8.35,5.06c2.36,2.2,4.22,4.83,5.58,7.91 c1.36,3.08,2.04,6.52,2.04,10.32c0,3.8-0.68,7.24-2.04,10.32c-1.36,3.08-3.22,5.72-5.58,7.91c-2.36,2.2-5.14,3.88-8.35,5.06 c-3.2,1.18-6.62,1.77-10.24,1.77c-3.62,0-7.04-0.59-10.24-1.77c-3.2-1.18-5.99-2.87-8.35-5.06c-2.36-2.19-4.22-4.83-5.58-7.91 C251.96,55.42,251.28,51.98,251.28,48.18z M265.84,48.18c0,3.6,1.02,6.52,3.06,8.75c2.04,2.23,4.9,3.34,8.59,3.34 s6.55-1.11,8.59-3.34c2.04-2.23,3.06-5.14,3.06-8.75c0-3.6-1.02-6.52-3.06-8.75c-2.04-2.23-4.9-3.34-8.59-3.34 s-6.55,1.11-8.59,3.34C266.86,41.66,265.84,44.58,265.84,48.18z"/>
    <path class="st1" d="M351.84,72.07h-13.98v-6.49h-0.19c-0.52,0.92-1.18,1.83-1.99,2.75c-0.81,0.92-1.8,1.74-2.96,2.46 c-1.16,0.72-2.49,1.31-3.98,1.77c-1.49,0.46-3.11,0.69-4.85,0.69c-3.69,0-6.68-0.57-8.98-1.72c-2.3-1.15-4.08-2.74-5.34-4.77 c-1.26-2.03-2.1-4.42-2.52-7.17c-0.42-2.75-0.63-5.73-0.63-8.94V24.3h14.56v23.39c0,1.38,0.05,2.8,0.15,4.28 c0.1,1.47,0.39,2.83,0.87,4.08c0.49,1.25,1.23,2.26,2.23,3.05c1,0.79,2.44,1.18,4.32,1.18c1.88,0,3.4-0.34,4.56-1.03 s2.05-1.6,2.67-2.75c0.61-1.15,1.02-2.44,1.21-3.88c0.19-1.44,0.29-2.95,0.29-4.52V24.3h14.56V72.07z"/>
    <path class="st1" d="M355.72,24.3h13.4v6.29h0.19c0.58-0.85,1.34-1.72,2.28-2.6c0.94-0.88,2.04-1.69,3.3-2.41 c1.26-0.72,2.64-1.31,4.13-1.77c1.49-0.46,3.07-0.69,4.76-0.69c3.5,0,6.67,0.61,9.51,1.82c2.85,1.21,5.29,2.92,7.33,5.11 c2.04,2.2,3.61,4.8,4.71,7.81c1.1,3.01,1.65,6.32,1.65,9.93c0,3.34-0.5,6.54-1.5,9.58c-1,3.05-2.43,5.75-4.27,8.11 c-1.84,2.36-4.09,4.24-6.75,5.65c-2.65,1.41-5.66,2.11-9.03,2.11c-3.04,0-5.87-0.48-8.49-1.42c-2.62-0.95-4.77-2.57-6.46-4.87 h-0.19v27.52h-14.56V24.3z M369.12,48.18c0,3.6,1.02,6.52,3.06,8.75c2.04,2.23,4.9,3.34,8.59,3.34s6.55-1.11,8.59-3.34 c2.04-2.23,3.06-5.14,3.06-8.75c0-3.6-1.02-6.52-3.06-8.75c-2.04-2.23-4.9-3.34-8.59-3.34s-6.55,1.11-8.59,3.34 C370.14,41.66,369.12,44.58,369.12,48.18z"/>
  </g>
</g>
</svg> 